<svg width="67" height="42" viewBox="0 0 67 42" fill="none" xmlns="http://www.w3.org/2000/svg">
<g id="g7433">
<path id="path7429" d="M65.2804 6.63991C64.522 4.08263 62.301 2.06632 59.4841 1.37782C54.3378 0.0991821 33.7527 0.0991821 33.7527 0.0991821C33.7527 0.0991821 13.1675 0.0991821 8.02123 1.32864C5.25849 2.01714 2.98329 4.08263 2.22489 6.63991C0.870605 11.3119 0.870605 21 0.870605 21C0.870605 21 0.870605 30.7373 2.22489 35.3601C2.98329 37.9174 5.20432 39.9337 8.02123 40.6222C13.2217 41.9008 33.7527 41.9008 33.7527 41.9008C33.7527 41.9008 54.3378 41.9008 59.4841 40.6714C62.301 39.9829 64.522 37.9666 65.2804 35.4093C66.6347 30.7373 66.6347 21.0492 66.6347 21.0492C66.6347 21.0492 66.6889 11.3119 65.2804 6.63991Z" fill="#FC2648"/>
<path id="polygon7431" d="M27.1948 12.0496V29.9506L44.313 21.0001L27.1948 12.0496Z" fill="white"/>
</g>
</svg>
