<?xml version="1.0" standalone="no"?>
<!DOCTYPE svg PUBLIC "-//W3C//DTD SVG 20010904//EN"
 "http://www.w3.org/TR/2001/REC-SVG-20010904/DTD/svg10.dtd">
<svg version="1.0" xmlns="http://www.w3.org/2000/svg"
 width="265.000000pt" height="132.000000pt" viewBox="0 0 265.000000 132.000000"
 preserveAspectRatio="xMidYMid meet">

<g transform="translate(0.000000,132.000000) scale(0.100000,-0.100000)"
fill="#000000" stroke="none">
<path d="M530 1285 c-262 -38 -404 -133 -454 -304 -14 -46 -16 -124 -16 -518
l0 -463 190 0 189 0 3 523 3 522 27 57 c32 69 111 151 171 178 l42 20 -35 -1
c-19 -1 -73 -7 -120 -14z"/>
<path d="M783 1286 c-225 -73 -338 -326 -240 -540 34 -74 108 -151 182 -190
57 -29 66 -31 170 -31 101 0 115 2 168 28 154 76 249 256 220 416 -25 133
-105 239 -223 294 -54 26 -79 32 -150 34 -53 2 -101 -2 -127 -11z m279 -44
c79 -39 130 -92 171 -181 27 -56 32 -78 32 -146 0 -137 -55 -243 -165 -317
-70 -47 -127 -63 -218 -62 -62 1 -83 6 -147 38 -112 55 -182 150 -206 280 -30
165 72 340 240 407 35 15 67 18 136 17 79 -3 99 -7 157 -36z"/>
<path d="M788 1225 c-94 -34 -172 -116 -205 -211 -22 -65 -14 -195 16 -252 28
-55 96 -124 153 -154 37 -20 58 -23 143 -23 84 0 107 4 141 22 94 50 155 126
180 224 41 158 -50 331 -202 389 -64 23 -169 26 -226 5z"/>
<path d="M1150 1278 c61 -30 132 -105 167 -175 l28 -58 3 -522 3 -523 189 0
190 0 0 438 c0 240 -4 462 -9 493 -32 195 -180 308 -464 353 -53 9 -109 16
-124 16 -25 0 -24 -2 17 -22z"/>
<path d="M1550 1269 c82 -42 173 -131 208 -206 l27 -58 3 -502 3 -503 190 0
190 0 -3 473 -3 472 -33 67 c-72 147 -229 231 -507 272 -143 22 -148 21 -75
-15z"/>
<path d="M1930 1281 c41 -16 134 -72 170 -103 37 -32 93 -111 111 -158 18 -47
19 -81 19 -535 l0 -485 190 0 190 0 0 463 0 462 -29 60 c-79 164 -261 259
-570 301 -133 17 -136 17 -81 -5z"/>
</g>
</svg>
